<?xml version="1.0" encoding="UTF-8" standalone="no"?>
<!-- Generator: Adobe Illustrator 16.0.0, SVG Export Plug-In . SVG Version: 6.00 Build 0)  -->

<svg
   xmlns:dc="http://purl.org/dc/elements/1.1/"
   xmlns:cc="http://creativecommons.org/ns#"
   xmlns:rdf="http://www.w3.org/1999/02/22-rdf-syntax-ns#"
   xmlns:svg="http://www.w3.org/2000/svg"
   xmlns="http://www.w3.org/2000/svg"
   xmlns:sodipodi="http://sodipodi.sourceforge.net/DTD/sodipodi-0.dtd"
   xmlns:inkscape="http://www.inkscape.org/namespaces/inkscape"
   version="1.1"
   id="Capa_1"
   x="0px"
   y="0px"
   width="550.801px"
   height="550.801px"
   viewBox="0 0 550.801 550.801"
   style="enable-background:new 0 0 550.801 550.801;"
   xml:space="preserve"
   sodipodi:docname="icon.svg"
   inkscape:version="0.92.4 (5da689c313, 2019-01-14)"><metadata
   id="metadata3805"><rdf:RDF><cc:Work
       rdf:about=""><dc:format>image/svg+xml</dc:format><dc:type
         rdf:resource="http://purl.org/dc/dcmitype/StillImage" /><dc:title></dc:title></cc:Work></rdf:RDF></metadata><defs
   id="defs3803" /><sodipodi:namedview
   pagecolor="#ffffff"
   bordercolor="#666666"
   borderopacity="1"
   objecttolerance="10"
   gridtolerance="10"
   guidetolerance="10"
   inkscape:pageopacity="0"
   inkscape:pageshadow="2"
   inkscape:window-width="1920"
   inkscape:window-height="1017"
   id="namedview3801"
   showgrid="false"
   inkscape:zoom="1.5395759"
   inkscape:cx="135.51066"
   inkscape:cy="268.50579"
   inkscape:window-x="-8"
   inkscape:window-y="-8"
   inkscape:window-maximized="1"
   inkscape:current-layer="g3766" />
<g
   id="g3768">
	<g
   id="g3766">
		<path
   d="M277.425,402.116c-20.208,0-31.87,19.833-31.87,44.317c-0.2,24.88,11.853,43.934,31.681,43.934    c20.018,0,31.683-18.858,31.683-44.508C308.918,421.949,297.644,402.116,277.425,402.116z"
   id="path3760" />
		<path
   d="M475.095,131.992c-0.032-2.526-0.833-5.021-2.568-6.993L366.324,3.694c-0.021-0.034-0.062-0.045-0.084-0.076    c-0.633-0.707-1.36-1.29-2.141-1.804c-0.232-0.15-0.475-0.285-0.718-0.422c-0.675-0.366-1.382-0.67-2.13-0.892    c-0.19-0.058-0.38-0.14-0.58-0.192C359.87,0.114,359.037,0,358.203,0H97.2C85.292,0,75.6,9.693,75.6,21.601v507.6    c0,11.913,9.692,21.601,21.6,21.601H453.6c11.908,0,21.601-9.688,21.601-21.601V133.202    C475.2,132.796,475.137,132.398,475.095,131.992z M147.382,513.691c-14.974,0-29.742-3.892-37.125-7.979l6.022-24.485    c7.963,4.082,20.216,8.164,32.843,8.164c13.613,0,20.799-5.643,20.799-14.196c0-8.169-6.21-12.825-21.956-18.457    c-21.766-7.583-35.962-19.644-35.962-38.687c0-22.354,18.668-39.461,49.57-39.461c14.776,0,25.661,3.111,33.431,6.613    l-6.613,23.904c-5.244-2.521-14.575-6.207-27.4-6.207c-12.836,0-19.045,5.822-19.045,12.63c0,8.358,7.38,12.05,24.289,18.463    c23.127,8.553,34.024,20.608,34.024,39.076C200.253,495.023,183.336,513.691,147.382,513.691z M332.237,534.284    c-18.657-5.442-34.204-11.074-51.701-18.468c-2.911-1.16-6.022-1.745-9.134-1.936c-29.542-1.936-57.14-23.715-57.14-66.482    c0-39.261,24.877-68.808,63.942-68.808c40.047,0,62.006,30.322,62.006,66.087c0,29.742-13.796,50.735-31.104,58.504v0.785    c10.115,2.922,21.39,5.253,31.684,7.378L332.237,534.284z M441.492,511.745h-81.833V380.737h29.742V486.86h52.091V511.745z     M97.2,366.752V21.601h250.203v110.515c0,5.961,4.831,10.8,10.8,10.8H453.6l0.011,223.836H97.2z"
   id="path3762" />
		
	<g
   transform="matrix(16.223502,0,0,19.643301,123.11552,7.5498011)"
   id="g3874"><g
     id="g3872"><path
       inkscape:connector-curvature="0"
       style="fill:#030104"
       d="M 2.245,10.496 H 0.272 C 0.122,10.496 0,10.62 0,10.77 v 5.717 c 0,0.15 0.122,0.272 0.272,0.272 h 1.973 c 0.15,0 0.272,-0.122 0.272,-0.272 V 10.77 C 2.518,10.62 2.396,10.496 2.245,10.496 Z"
       id="path3860" /><path
       inkscape:connector-curvature="0"
       style="fill:#030104"
       d="m 18.504,10.496 h -1.973 c -0.15,0 -0.271,0.124 -0.271,0.274 v 5.717 c 0,0.15 0.121,0.272 0.271,0.272 h 1.973 c 0.152,0 0.273,-0.122 0.273,-0.272 V 10.77 c 0,-0.15 -0.121,-0.274 -0.273,-0.274 z"
       id="path3862" /><path
       inkscape:connector-curvature="0"
       style="fill:#030104"
       d="M 5.907,7.228 H 3.934 c -0.15,0 -0.273,0.122 -0.273,0.273 v 8.984 c 0,0.15 0.123,0.272 0.273,0.272 h 1.973 c 0.151,0 0.273,-0.122 0.273,-0.272 V 7.501 C 6.18,7.349 6.058,7.228 5.907,7.228 Z"
       id="path3864" /><path
       inkscape:connector-curvature="0"
       style="fill:#030104"
       d="m 14.271,7.228 h -1.973 c -0.15,0 -0.271,0.122 -0.271,0.273 v 8.984 c 0,0.15 0.121,0.272 0.271,0.272 h 1.973 c 0.152,0 0.273,-0.122 0.273,-0.272 V 7.501 C 14.545,7.349 14.424,7.228 14.271,7.228 Z"
       id="path3866" /><path
       inkscape:connector-curvature="0"
       style="fill:#030104"
       d="M 10.01,9.218 H 8.036 c -0.15,0 -0.272,0.123 -0.272,0.272 v 6.994 c 0,0.15 0.122,0.272 0.272,0.272 h 1.974 c 0.152,0 0.273,-0.122 0.273,-0.272 V 9.49 c 0,-0.149 -0.121,-0.272 -0.273,-0.272 z"
       id="path3868" /><path
       inkscape:connector-curvature="0"
       style="fill:#030104"
       d="M 1.259,6.947 C 1.84,6.947 2.31,6.477 2.31,5.896 2.31,5.795 2.291,5.7 2.264,5.608 L 4.475,4.017 c 0.136,0.064 0.286,0.102 0.446,0.102 0.309,0 0.583,-0.135 0.776,-0.347 L 7.784,4.98 c -0.012,0.062 -0.02,0.126 -0.02,0.19 0,0.58 0.471,1.051 1.051,1.051 0.559,0 1.012,-0.438 1.044,-0.989 l 2.814,-0.823 c 0.191,0.262 0.498,0.435 0.848,0.435 0.232,0 0.443,-0.077 0.617,-0.205 l 2.365,1.604 c -0.02,0.083 -0.037,0.17 -0.037,0.26 0,0.581 0.471,1.052 1.051,1.052 0.58,0 1.053,-0.471 1.053,-1.052 0,-0.581 -0.473,-1.051 -1.053,-1.051 -0.232,0 -0.443,0.077 -0.617,0.204 L 14.537,4.055 c 0.02,-0.084 0.035,-0.17 0.035,-0.26 0,-0.581 -0.469,-1.051 -1.051,-1.051 -0.559,0 -1.012,0.438 -1.045,0.989 L 9.663,4.555 C 9.472,4.292 9.164,4.12 8.815,4.12 8.556,4.12 8.323,4.216 8.14,4.371 L 5.968,3.112 c 0,-0.015 0.004,-0.028 0.004,-0.042 0,-0.581 -0.47,-1.052 -1.051,-1.052 -0.581,0 -1.051,0.47 -1.051,1.051 0,0.158 0.038,0.306 0.1,0.441 L 1.855,5.032 C 1.686,4.914 1.481,4.845 1.259,4.845 c -0.581,0 -1.051,0.471 -1.051,1.051 0,0.581 0.47,1.051 1.051,1.051 z"
       id="path3870" /></g></g><g
   transform="matrix(7.5063784,0,0,6.7329053,104.92869,244.70007)"
   id="g3876" /><g
   transform="matrix(7.5063784,0,0,6.7329053,104.92869,244.70007)"
   id="g3878" /><g
   transform="matrix(7.5063784,0,0,6.7329053,104.92869,244.70007)"
   id="g3880" /><g
   transform="matrix(7.5063784,0,0,6.7329053,104.92869,244.70007)"
   id="g3882" /><g
   transform="matrix(7.5063784,0,0,6.7329053,104.92869,244.70007)"
   id="g3884" /><g
   transform="matrix(7.5063784,0,0,6.7329053,104.92869,244.70007)"
   id="g3886" /><g
   transform="matrix(7.5063784,0,0,6.7329053,104.92869,244.70007)"
   id="g3888" /><g
   transform="matrix(7.5063784,0,0,6.7329053,104.92869,244.70007)"
   id="g3890" /><g
   transform="matrix(7.5063784,0,0,6.7329053,104.92869,244.70007)"
   id="g3892" /><g
   transform="matrix(7.5063784,0,0,6.7329053,104.92869,244.70007)"
   id="g3894" /><g
   transform="matrix(7.5063784,0,0,6.7329053,104.92869,244.70007)"
   id="g3896" /><g
   transform="matrix(7.5063784,0,0,6.7329053,104.92869,244.70007)"
   id="g3898" /><g
   transform="matrix(7.5063784,0,0,6.7329053,104.92869,244.70007)"
   id="g3900" /><g
   transform="matrix(7.5063784,0,0,6.7329053,104.92869,244.70007)"
   id="g3902" /><g
   transform="matrix(7.5063784,0,0,6.7329053,104.92869,244.70007)"
   id="g3904" /></g>
</g>
<g
   id="g3770">
</g>
<g
   id="g3772">
</g>
<g
   id="g3774">
</g>
<g
   id="g3776">
</g>
<g
   id="g3778">
</g>
<g
   id="g3780">
</g>
<g
   id="g3782">
</g>
<g
   id="g3784">
</g>
<g
   id="g3786">
</g>
<g
   id="g3788">
</g>
<g
   id="g3790">
</g>
<g
   id="g3792">
</g>
<g
   id="g3794">
</g>
<g
   id="g3796">
</g>
<g
   id="g3798">
</g>
</svg>